<mxfile host="app.diagrams.net" modified="2022-01-10T08:41:54.283Z" agent="5.0 (Windows NT 10.0; Win64; x64) AppleWebKit/537.36 (KHTML, like Gecko) Chrome/97.0.4692.71 Safari/537.36 Edg/97.0.1072.55" etag="T5js22AbBD5TvdPuCepT" version="16.2.4" type="github">
  <diagram id="O3i8RDZ6oZA4PuCyHn2n" name="Page-1">
    <mxGraphModel dx="556" dy="523" grid="1" gridSize="10" guides="1" tooltips="1" connect="1" arrows="1" fold="1" page="1" pageScale="1" pageWidth="827" pageHeight="1169" math="0" shadow="0">
      <root>
        <mxCell id="0" />
        <mxCell id="1" parent="0" />
        <mxCell id="ShKIqCG23vbNHyEVxpWZ-18" style="edgeStyle=orthogonalEdgeStyle;rounded=0;orthogonalLoop=1;jettySize=auto;html=1;exitX=0.5;exitY=1;exitDx=0;exitDy=0;" edge="1" parent="1" source="ShKIqCG23vbNHyEVxpWZ-1" target="ShKIqCG23vbNHyEVxpWZ-2">
          <mxGeometry relative="1" as="geometry" />
        </mxCell>
        <mxCell id="ShKIqCG23vbNHyEVxpWZ-1" value="工前会确认" style="rounded=1;whiteSpace=wrap;html=1;" vertex="1" parent="1">
          <mxGeometry x="180" y="20" width="120" height="60" as="geometry" />
        </mxCell>
        <mxCell id="ShKIqCG23vbNHyEVxpWZ-19" style="edgeStyle=orthogonalEdgeStyle;rounded=0;orthogonalLoop=1;jettySize=auto;html=1;exitX=0.5;exitY=1;exitDx=0;exitDy=0;" edge="1" parent="1" source="ShKIqCG23vbNHyEVxpWZ-2" target="ShKIqCG23vbNHyEVxpWZ-3">
          <mxGeometry relative="1" as="geometry" />
        </mxCell>
        <mxCell id="ShKIqCG23vbNHyEVxpWZ-2" value="同步用户所在船的待工前会确认计划到本地" style="rounded=0;whiteSpace=wrap;html=1;" vertex="1" parent="1">
          <mxGeometry x="180" y="110" width="120" height="60" as="geometry" />
        </mxCell>
        <mxCell id="ShKIqCG23vbNHyEVxpWZ-14" style="edgeStyle=orthogonalEdgeStyle;rounded=0;orthogonalLoop=1;jettySize=auto;html=1;exitX=0.5;exitY=1;exitDx=0;exitDy=0;" edge="1" parent="1" source="ShKIqCG23vbNHyEVxpWZ-3" target="ShKIqCG23vbNHyEVxpWZ-4">
          <mxGeometry relative="1" as="geometry" />
        </mxCell>
        <mxCell id="ShKIqCG23vbNHyEVxpWZ-3" value="签名确认计划的每一项" style="rounded=0;whiteSpace=wrap;html=1;" vertex="1" parent="1">
          <mxGeometry x="180" y="200" width="120" height="60" as="geometry" />
        </mxCell>
        <mxCell id="ShKIqCG23vbNHyEVxpWZ-7" style="edgeStyle=orthogonalEdgeStyle;rounded=0;orthogonalLoop=1;jettySize=auto;html=1;exitX=1;exitY=0.5;exitDx=0;exitDy=0;entryX=0.5;entryY=0;entryDx=0;entryDy=0;" edge="1" parent="1" source="ShKIqCG23vbNHyEVxpWZ-4" target="ShKIqCG23vbNHyEVxpWZ-5">
          <mxGeometry relative="1" as="geometry" />
        </mxCell>
        <mxCell id="ShKIqCG23vbNHyEVxpWZ-10" style="edgeStyle=orthogonalEdgeStyle;rounded=0;orthogonalLoop=1;jettySize=auto;html=1;exitX=0;exitY=0.5;exitDx=0;exitDy=0;entryX=0.5;entryY=0;entryDx=0;entryDy=0;" edge="1" parent="1" source="ShKIqCG23vbNHyEVxpWZ-4" target="ShKIqCG23vbNHyEVxpWZ-6">
          <mxGeometry relative="1" as="geometry" />
        </mxCell>
        <mxCell id="ShKIqCG23vbNHyEVxpWZ-4" value="是否连接到&lt;br&gt;船端服务器" style="rhombus;whiteSpace=wrap;html=1;" vertex="1" parent="1">
          <mxGeometry x="195" y="290" width="90" height="80" as="geometry" />
        </mxCell>
        <mxCell id="ShKIqCG23vbNHyEVxpWZ-11" style="edgeStyle=orthogonalEdgeStyle;rounded=0;orthogonalLoop=1;jettySize=auto;html=1;exitX=0.5;exitY=1;exitDx=0;exitDy=0;entryX=0.5;entryY=0;entryDx=0;entryDy=0;" edge="1" parent="1" source="ShKIqCG23vbNHyEVxpWZ-5" target="ShKIqCG23vbNHyEVxpWZ-9">
          <mxGeometry relative="1" as="geometry" />
        </mxCell>
        <mxCell id="ShKIqCG23vbNHyEVxpWZ-5" value="保存本地" style="rounded=0;whiteSpace=wrap;html=1;" vertex="1" parent="1">
          <mxGeometry x="310" y="400" width="90" height="40" as="geometry" />
        </mxCell>
        <mxCell id="ShKIqCG23vbNHyEVxpWZ-15" style="edgeStyle=orthogonalEdgeStyle;rounded=0;orthogonalLoop=1;jettySize=auto;html=1;exitX=0.5;exitY=1;exitDx=0;exitDy=0;entryX=0.5;entryY=0;entryDx=0;entryDy=0;" edge="1" parent="1" source="ShKIqCG23vbNHyEVxpWZ-6" target="ShKIqCG23vbNHyEVxpWZ-13">
          <mxGeometry relative="1" as="geometry">
            <Array as="points">
              <mxPoint x="138" y="570" />
              <mxPoint x="240" y="570" />
            </Array>
          </mxGeometry>
        </mxCell>
        <mxCell id="ShKIqCG23vbNHyEVxpWZ-6" value="提交到船端服务器" style="rounded=0;whiteSpace=wrap;html=1;" vertex="1" parent="1">
          <mxGeometry x="95" y="430" width="85" height="50" as="geometry" />
        </mxCell>
        <mxCell id="ShKIqCG23vbNHyEVxpWZ-17" style="edgeStyle=orthogonalEdgeStyle;rounded=0;orthogonalLoop=1;jettySize=auto;html=1;exitX=0.5;exitY=1;exitDx=0;exitDy=0;" edge="1" parent="1" source="ShKIqCG23vbNHyEVxpWZ-9" target="ShKIqCG23vbNHyEVxpWZ-13">
          <mxGeometry relative="1" as="geometry">
            <Array as="points">
              <mxPoint x="355" y="570" />
              <mxPoint x="240" y="570" />
            </Array>
          </mxGeometry>
        </mxCell>
        <mxCell id="ShKIqCG23vbNHyEVxpWZ-9" value="可连接到船端时同步到船端服务器" style="rounded=0;whiteSpace=wrap;html=1;" vertex="1" parent="1">
          <mxGeometry x="305" y="480" width="100" height="40" as="geometry" />
        </mxCell>
        <mxCell id="ShKIqCG23vbNHyEVxpWZ-13" value="完成" style="rounded=1;whiteSpace=wrap;html=1;" vertex="1" parent="1">
          <mxGeometry x="190" y="650" width="100" height="45" as="geometry" />
        </mxCell>
      </root>
    </mxGraphModel>
  </diagram>
</mxfile>
